# xmcd
#
# Track frame offsets:
#	150
#	18437
#	35683
#	55449
#	70988
#	87046
#	107373
#	122111
#	137254
#	153372
#	171986
#	189235
#	207396
#	226034
#	242935
#
# Disc length: 3430 seconds
#
# Revision: 0
# Processed by: cddbd v1.5.2PL0 Copyright (c) Steve Scherf et al.
# Submitted via: audiograbber 1.83.01
#
DISCID=c30d640f
DTITLE=Various Artist - CB60407
DYEAR=2009
DGENRE=
TTITLE0=Kiss A Girl - Keith Urban
TTITLE1=Home Sweet Home - Carrie Underwood
TTITLE2=Then - Brad Paisley
TTITLE3=Shine - Jo Dee Messina
TTITLE4=Out Last Night - Kenny Chesney
TTITLE5=I Just Call You Mine - Martina McBride
TTITLE6=Believers =Joe Nichols
TTITLE7=The Earrings Song - Gretchen Wilson
TTITLE8=Barefoot And Crazy - Jack Ingram
TTITLE9=Solitary Thinkin' - Lee Ann Womack
TTITLE10=What Would You Say - Trailer Choir
TTITLE11=I Want My Life Back - Bucky Covington
TTITLE12=Runaway - Love And Theft
TTITLE13=Address In The Stars - Caitilin and Will
TTITLE14=She Never Got Me Over You - Mark Chesnutt
EXTD=
EXTT0=
EXTT1=
EXTT2=
EXTT3=
EXTT4=
EXTT5=
EXTT6=
EXTT7=
EXTT8=
EXTT9=
EXTT10=
EXTT11=
EXTT12=
EXTT13=
EXTT14=
PLAYORDER=
